<?xml version="1.0" encoding="utf-8"?>
<!-- Generator: Adobe Illustrator 22.1.0, SVG Export Plug-In . SVG Version: 6.00 Build 0)  -->
<svg version="1.1" id="think-cell_RGB" xmlns="http://www.w3.org/2000/svg" xmlns:xlink="http://www.w3.org/1999/xlink" x="0px"
	 y="0px" viewBox="0 0 184 44" style="enable-background:new 0 0 184 44;" xml:space="preserve">
<style type="text/css">
	.st0{fill:#D2D6DC;}
	.st1{fill:#C31F41;}
	.st2{fill:#231F20;}
</style>
<title>Artboard 2</title>
<rect x="154.5" y="6.8" class="st0" width="27.3" height="0.3"/>
<rect x="154.5" y="13.6" class="st0" width="27.3" height="0.3"/>
<path class="st0" d="M154.3,0v27.4h27.6V0H154.3z M181.6,0.3v26.8h-27V0.4L181.6,0.3z"/>
<rect x="154.5" y="20.4" class="st0" width="27.3" height="0.3"/>
<rect x="161.1" y="0.2" class="st0" width="0.3" height="27.1"/>
<rect x="168" y="0.2" class="st0" width="0.3" height="27.1"/>
<rect x="174.8" y="0.2" class="st0" width="0.3" height="27.1"/>
<polygon class="st0" points="154.3,20.4 154.6,20.6 175,0.3 174.8,0.1 "/>
<polygon class="st0" points="161.2,27.2 161.4,27.4 181.9,7.1 181.7,6.9 "/>
<path class="st1" d="M161.3,13.8l-6.8,6.8v-17c0-1.8,1.4-3.3,3.2-3.3c0.1,0,0.2,0,0.2,0h3.4L161.3,13.8L161.3,13.8z"/>
<rect x="161.3" y="0.1" class="st2" width="13.6" height="0.2"/>
<path class="st2" d="M157.9,0.1c-1.9-0.1-3.5,1.4-3.5,3.3c0,0.1,0,0.1,0,0.2v17.3l7.1-7V0.1H157.9z M154.6,3.6
	c-0.1-1.7,1.3-3.2,3-3.2c0.1,0,0.2,0,0.3,0h3.3v13.4l-6.6,6.5V3.6z"/>
<rect x="181.6" y="7" class="st2" width="0.2" height="13.6"/>
<path class="st0" d="M168.1,20.5l-6.9,6.8h17.2c1.8,0,3.3-1.4,3.4-3.2c0-0.1,0-0.2,0-0.2v-3.4H168.1z"/>
<path class="st2" d="M168.1,20.4l-7.1,7.1h17.5c1.9,0.1,3.4-1.4,3.5-3.3c0-0.1,0-0.2,0-0.2v-3.5H168.1z M181.6,20.6v3.3
	c0.1,1.7-1.2,3.2-3,3.3c-0.1,0-0.2,0-0.3,0h-16.9l6.6-6.6L181.6,20.6z"/>
<polygon class="st2" points="2.8,16.8 0,16.8 0,14 2.8,14 2.8,7 6.2,7 6.2,14 10.7,14 10.7,16.8 6.2,16.8 6.2,42.2 2.8,42.2 "/>
<path class="st2" d="M13.7,0H17v16.6c1-1.9,3.1-3.1,5.2-3c1.7-0.1,3.3,0.7,4.2,2.1c0.9,1.4,1.3,3.7,1.3,6.9v19.6h-3.3V22.1
	c0.1-1.6-0.1-3.1-0.8-4.6c-0.6-0.9-1.6-1.4-2.7-1.2c-1.3,0-2.4,0.7-3,1.8c-0.8,1.6-1.1,3.5-1,5.3v18.8h-3.3V0z"/>
<path class="st2" d="M35.5,3.3c0.6,0,1.1,0.2,1.5,0.6c0.4,0.4,0.6,1,0.6,1.5c0,0.6-0.2,1.1-0.6,1.5c-0.4,0.4-0.9,0.7-1.5,0.6
	c-0.6,0-1.1-0.2-1.5-0.7c-0.4-0.4-0.6-1-0.6-1.5c0-0.6,0.2-1.1,0.6-1.5C34.4,3.5,34.9,3.3,35.5,3.3 M33.8,14h3.4v28.2h-3.4V14z"/>
<path class="st2" d="M43.7,14h3.3v2.6c0.5-0.9,1.3-1.7,2.2-2.2c0.9-0.5,2-0.8,3-0.7c1.7-0.1,3.3,0.7,4.2,2.1
	c0.9,1.4,1.3,3.7,1.3,6.9v19.6h-3.3V22.1c0-2.2-0.3-3.7-0.8-4.6c-0.6-0.9-1.6-1.3-2.6-1.2c-1.3,0-2.4,0.7-3,1.8
	c-0.8,1.6-1.1,3.5-1,5.3v18.8h-3.4V14z"/>
<path class="st2" d="M64,0.1h3.3v42.2H64V0.1 M74.3,14H78l-7.3,12.3l9.7,16h-4l-9.1-15.8L74.3,14z"/>
<rect x="80.8" y="26.1" class="st2" width="10.9" height="2.8"/>
<path class="st2" d="M108.6,14.7v4.1c-0.4-0.6-1-1.1-1.6-1.5c-0.5-0.3-1.1-0.5-1.8-0.5c-1.7,0-3,1-3.8,2.9s-1.2,4.9-1.2,9.1
	c-0.1,2.7,0.3,5.3,1.2,7.8c0.5,1.6,2,2.6,3.7,2.7c0.7,0,1.3-0.2,1.9-0.5c0.6-0.4,1.1-0.9,1.5-1.6v4.1c-0.6,0.4-1.2,0.8-1.9,1
	c-0.7,0.2-1.4,0.3-2.1,0.3c-2.4,0-4.3-1.2-5.7-3.7s-2.1-5.9-2.1-10.3c0-5,0.7-8.7,2.1-11.2c1.2-2.4,3.6-3.8,6.3-3.8
	c0.6,0,1.2,0.1,1.8,0.3C107.6,14.1,108.1,14.3,108.6,14.7z"/>
<path class="st2" d="M126.4,29h-11.9v1c-0.1,2.5,0.3,4.9,1.2,7.2c0.8,1.7,1.9,2.6,3.3,2.6c1.2,0,2.3-0.7,2.8-1.8
	c0.8-1.5,1.2-3.3,1.2-5h3.2c0,2.5-0.7,5-2.1,7.2c-2,2.8-6,3.5-8.8,1.4c-0.9-0.6-1.6-1.5-2-2.4c-1.3-2.4-1.9-6-1.9-10.8s0.7-8.4,2-11
	s3.3-3.9,5.7-3.9s4.3,1.2,5.5,3.7s1.9,6.1,1.9,10.9L126.4,29 M123.2,26.2c0.1-2.4-0.3-4.8-1.1-7c-0.7-1.7-1.7-2.5-3-2.5
	s-2.4,0.8-3.2,2.5c-0.9,2.2-1.4,4.7-1.4,7.1L123.2,26.2z"/>
<rect x="130.9" y="0.1" class="st2" width="3.4" height="42.2"/>
<rect x="140.8" y="0.1" class="st2" width="3.4" height="42.2"/>
<path class="st2" d="M35.6,3.3c1.1,0,2,0.9,2,2c0,0,0,0,0,0.1c0,1.1-0.9,2-2,2s-2-0.9-2-2S34.5,3.4,35.6,3.3L35.6,3.3z"/>
</svg>
